<svg width="31" height="28" viewBox="0 0 31 28" fill="none" xmlns="http://www.w3.org/2000/svg">
<g clip-path="url(#clip0_6_91)">
<path d="M23.9066 12.2809H7.31702C6.00814 12.2809 4.94708 13.3882 4.94708 14.7541V23.4106C4.94708 24.7765 6.00814 25.8838 7.31702 25.8838H23.9066C25.2154 25.8838 26.2765 24.7765 26.2765 23.4106V14.7541C26.2765 13.3882 25.2154 12.2809 23.9066 12.2809Z" stroke="#A098AE" stroke-width="1.5" stroke-linecap="round" stroke-linejoin="round"/>
<path d="M9.51764 12.2809V7.44427C9.51764 5.84083 10.1597 4.30307 11.3026 3.16927C12.4454 2.03548 13.9955 1.39851 15.6118 1.39851C17.228 1.39851 18.7781 2.03548 19.9209 3.16927C21.0638 4.30307 21.7059 5.84083 21.7059 7.44427V12.2809" stroke="#A098AE" stroke-width="1.5" stroke-linecap="round" stroke-linejoin="round"/>
</g>
<defs>
<clipPath id="clip0_6_91">
<rect width="30.4706" height="27.2059" fill="white" transform="translate(0.376465 0.0382233)"/>
</clipPath>
</defs>
</svg>
